PathFileType	4	(X/Y/Z)	C:/Users/beibeiliu/ov580/test_trc/User1\sequence.1_training_dense_left.trc
DataRate	CameraRate	NumFrames	NumMarkers	Units	OrigDataRate	OrigDataStartFrame	OrigNumFrames
120	120	14	19	mm	120	258	294
Frame#	Time	ThumbCMC			ThumbMCP			ThumbIP			ThumbTip			IndexMCP			IndexPIP			IndexTip			MiddleMCP			MiddlePIP			MiddleTip			RingMCP			RingPIP			RingTip			PinkyMCP			PinkyPIP			PinkyTip			BackHand1			BackHand2			BackHand3	
		X0	Y0	Z0	X1	Y1	Z1	X2	Y2	Z2	X3	Y3	Z3	X4	Y4	Z4	X5	Y5	Z5	X6	Y6	Z6	X7	Y7	Z7	X8	Y8	Z8	X9	Y9	Z9	X10	Y10	Z10	X11	Y11	Z11	X12	Y12	Z12	X13	Y13	Z13	X14	Y14	Z14	X15	Y15	Z15	X16	Y16	Z16	X17	Y17	Z17	X18	Y18	Z18	
257	2.14167	-149.228	43.4672	74.3352	-129.247	33.2532	46.9959	-122.193	31.5731	23.8402	-113.904	25.7934	-2.17184	-148.036	96.1228	2.45243	-147.471	100.147	-28.9215	-146.536	89.8807	-54.4199	-176.414	103.972	-5.34791	-176.627	108.084	-40.6468	-171.084	97.2845	-69.9503	-202.319	93.9464	-3.83671	-200.7	97.2365	-37.0031	-193.394	83.5136	-62.171	-229.359	75.1976	2.78703	-228.494	75.7896	-24.4007	-223.678	69.7102	-50.8153	-207.968	80.2552	46.8289	-215.062	71.7016	82.1183	-179.573	77.159	65.9747	
258	2.15	-150.208	38.4137	72.8773	-134.249	23.7903	49.6947	-117.163	21.2328	22.1272	-113.169	16.4556	-1.00006	-144.703	89.2474	3.95553	-141.054	95.8471	-25.3515	-139.993	86.2483	-53.0923	-174.507	100.957	-4.30098	-166.353	105.659	-38.6188	-169.212	93.762	-71.1713	-195.115	94.4659	-6.28025	-190.318	97.7177	-37.8309	-190.697	83.0079	-66.0092	-223.254	79.2922	1.48119	-226.501	79.2821	-25.5787	-219.395	72.7461	-46.9585	-206.106	79.9158	50.3643	-208.358	71.195	81.5892	-175.474	72.3136	69.0342	
259	2.15833	-146.929	32.7154	70.6814	-130.959	17.5242	46.5634	-119.036	16.7329	19.2201	-112.178	7.36108	-3.41219	-140.705	84.8001	5.27795	-130.589	90.5117	-22.2066	-131.86	81.4318	-52.0664	-166.187	98.3745	-3.12067	-161.369	103.809	-33.3025	-159.338	91.077	-70.3161	-191.163	94.7785	-5.41268	-186.607	98.1514	-33.6043	-182.421	83.4245	-63.4591	-217.928	79.0071	6.67936	-223.185	81.4623	-21.7585	-212.345	74.9055	-48.7214	-202.886	80.0836	52.7481	-205.593	68.8231	82.607	-166.639	69.8176	70.7149	
260	2.16667	-148.148	27.0272	70.4772	-130.667	11.2984	45.7504	-120.331	9.05331	20.096	-115.856	1.69462	-2.16312	-134.708	80.0718	4.48955	-130.229	85.325	-21.755	-126.62	75.7481	-52.1748	-158.454	93.5897	-1.29749	-152.781	99.7261	-32.2496	-151.836	88.3285	-68.4979	-181.397	90.9332	-0.743741	-176.799	96.9562	-31.8867	-177.822	84.1935	-60.2183	-214.175	82.1953	1.81766	-214.74	84.9675	-18.9902	-206.622	77.721	-50.0186	-197.976	77.1856	52.0887	-203.386	67.4213	82.6319	-168.369	64.5282	70.686	
261	2.175	-148.581	20.5229	73.8111	-131.384	4.73953	45.2539	-121.179	4.50942	16.5335	-115.644	-2.46709	-5.50183	-125.456	72.2327	7.01422	-118.706	78.2238	-23.2707	-124.565	70.1505	-52.8491	-151.767	90.6136	-1.37759	-148.34	95.8238	-33.9704	-149.023	85.5312	-63.9776	-178.11	89.4693	-0.0701602	-173.881	95.9739	-33.9456	-170.416	83.3225	-59.7516	-207.687	80.1421	6.58345	-209.693	83.8693	-18.7268	-201.802	76.9547	-47.4984	-189.973	75.2348	49.2823	-199.956	67.4713	80.9094	-159.083	59.1332	73.1774	
262	2.18333	-147.034	15.4338	73.6451	-133.618	2.35007	43.5795	-123.437	-3.26817	21.0781	-116.297	-7.65488	-9.45414	-124.787	68.4674	6.48664	-113.502	71.5034	-23.0771	-119.468	63.9987	-53.9281	-147.549	83.9427	0.851327	-139.809	90.373	-31.9182	-143.77	80.4492	-65.8153	-171.882	87.1227	-1.05151	-166.422	91.8864	-33.8071	-163.559	80.9343	-58.0151	-204.957	80.7628	5.40197	-205.533	83.0606	-21.7356	-198.396	80.695	-44.5525	-183.397	70.7665	55.077	-197.201	62.9917	86.0934	-160.447	54.8454	73.2753	
263	2.19167	-143.541	8.00547	74.9368	-129.623	-6.25006	43.2614	-121.68	-9.15648	16.8483	-120.075	-12.2088	-7.78495	-117.633	60.3545	8.35054	-109.976	65.8578	-22.4792	-111.799	56.8845	-49.4079	-141.821	79.5978	1.79148	-134.912	86.1536	-32.7178	-136.681	75.1274	-67.4242	-162.787	82.3677	1.5629	-160.667	89.0886	-28.8792	-156.86	77.605	-56.841	-197.499	76.3943	7.5024	-196.854	81.0079	-19.985	-193.286	79.2298	-46.4335	-181.988	68.757	52.9004	-193.33	59.2139	85.6242	-151.931	50.1941	71.784	
264	2.2	-145.679	5.72621	75.2852	-133.734	-12.3169	47.8535	-121.825	-14.9868	15.9486	-121.417	-20.1574	-6.06225	-116.55	55.5922	9.06323	-105.16	57.3305	-16.5826	-108.699	49.5719	-47.0766	-137.568	77.3693	-0.516462	-127.8	78.7129	-30.138	-128.895	69.1106	-62.8234	-160.586	78.9379	3.43371	-151.223	83.2564	-28.7114	-151.152	73.1506	-55.0044	-194.003	75.9289	6.03426	-193.328	80.6023	-15.2243	-187.649	76.7826	-40.6206	-174.717	63.3656	54.496	-187.673	56.9642	83.9925	-151.176	46.7581	76.4999	
265	2.20833	-140.237	1.5384	73.2752	-134.512	-15.7272	47.6113	-123.03	-22.5935	21.3656	-123.023	-24.7028	-4.68964	-114.341	47.6932	12.6162	-102.082	49.9775	-20.7869	-106.69	41.4972	-46.1203	-131.751	69.3534	3.57671	-126.57	74.8213	-27.3446	-126.253	64.4816	-62.0364	-152.49	75.2813	2.18856	-149.441	81.4291	-28.4688	-147.578	71.6408	-53.2952	-188.855	73.0106	9.37839	-188.257	77.7651	-18.2136	-184.163	74.8279	-43.4903	-172.211	63.1479	57.3123	-182.833	57.5029	84.8148	-145.294	42.6151	76.9857	
266	2.21667	-139.99	-1.87853	74.6338	-133.863	-18.6439	47.0021	-124.491	-26.5303	22.3914	-123.532	-30.3547	-3.83276	-111.325	42.9869	12.9574	-98.938	44.1476	-15.5258	-102.008	33.7337	-44.1312	-130.436	66.6864	3.2606	-121.153	68.9558	-28.1767	-121.55	58.9059	-63.8978	-149.571	71.7347	5.01619	-144.362	77.6719	-25.616	-144.024	69.2725	-57.8414	-183.904	71.0702	7.81122	-185.702	77.3234	-16.7353	-178.707	74.2555	-41.7834	-166.595	61.3056	55.3602	-183.953	54.8006	85.6092	-145.024	39.0881	78.1601	
267	2.225	-140.051	-6.59225	76.9591	-131.836	-26.4168	48.4519	-127.92	-31.526	24.1657	-123.613	-39.0227	-3.28765	-107.32	35.4158	14.0067	-96.8656	34.4199	-19.3524	-103.599	23.6311	-48.6415	-124.395	59.9679	0.714187	-117.676	61.2294	-26.8424	-116.288	51.12	-61.1745	-150.079	67.8354	5.58448	-139.401	71.9077	-27.5764	-140.161	65.4035	-52.8984	-179.634	65.6367	9.97086	-180.787	72.3263	-14.0247	-176.401	72.8468	-39.5907	-168.049	59.1678	55.7046	-182.183	51.5891	87.4185	-144.937	35.3724	78.3036	
268	2.23333	-139.412	-11.1482	79.4197	-135.075	-28.4117	49.2345	-124.931	-38.3749	21.6447	-126.447	-45.1214	0.516571	-102.425	27.2767	10.0415	-96.031	28.2491	-16.1897	-103.025	14.5179	-49.0021	-123.664	54.3944	0.924964	-116.454	55.0116	-32.3154	-116.623	45.263	-59.0318	-147.372	63.1269	3.06764	-137.157	65.1662	-26.2122	-138.018	58.6424	-51.2864	-181.258	64.433	9.57645	-177.547	68.1974	-13.0483	-174.079	66.5578	-41.8576	-164.285	55.2858	56.5336	-176.983	48.4006	89.2465	-141.285	34.3919	75.5709	
269	2.24167	-138.654	-16.4804	81.668	-133.21	-35.4762	49.4996	-127.969	-41.8141	24.8438	-125.613	-50.4259	-2.8919	-105.278	22.613	12.2147	-97.6378	23.4891	-19.0356	-102.747	8.16348	-46.2323	-125.221	49.5876	3.19432	-116.619	50.6373	-27.908	-118.47	40.0915	-60.1401	-141.403	57.1772	1.91579	-135.079	60.7182	-29.7329	-138.573	54.6365	-58.108	-178.415	59.5292	12.031	-177.528	65.0838	-12.972	-174.612	65.2736	-37.7432	-163.049	49.4889	56.8377	-170.862	46.1504	89.2238	-139.091	26.002	79.4834	
270	2.25	-140.922	-13.6413	80.2825	-132.866	-36.6608	49.6885	-126.482	-44.885	24.6018	-125.194	-53.7278	2.41629	-104.259	21.452	10.9768	-99.8852	20.9404	-20.1623	-104.639	6.04061	-45.9621	-120.67	45.7016	-0.306219	-116.332	47.0699	-29.1304	-119.215	32.9976	-64.0291	-142.671	53.9826	2.58207	-138.857	59.3947	-26.783	-136.944	47.5635	-58.2203	-178.162	55.6533	12.2277	-175.52	60.1047	-10.712	-174.633	60.9033	-42.4888	-162.023	48.1827	56.1862	-173.09	44.1023	87.7804	-138.461	27.9777	78.7827	
